<svg xmlns="http://www.w3.org/2000/svg" width="1240" height="1240"><path d="M450.5 253.131c-2.75.475-10.175 1.268-16.5 1.762-6.708.524-13.794 1.718-17.004 2.864-57.331 20.476-146.856 123.655-188.018 216.693-9.455 21.37-19.098 48.763-17.67 50.191 1.529 1.529 7.848-2.722 15.765-10.605C237.223 503.93 245.95 492.3 272.124 454c23.152-33.878 34.987-50.297 47.934-66.5 32.235-40.344 60.177-63.256 87.638-71.864 13.451-4.216 18.859-4.35 33.325-.823 32.073 7.82 52.997 17.779 65.079 30.977 19.771 21.597 14.859 50.344-15.074 88.21-3.695 4.675-8.006 10.75-9.58 13.5-6.998 12.23-19.436 31.038-28.436 43-13.519 17.966-26.796 32.398-46.199 50.214-27.661 25.4-36.747 36.397-43.83 53.049-1.484 3.49-2.954 5.43-4.36 5.757-15.245 3.543-73.032 16.48-73.617 16.48-.43 0-1.092-1.655-1.472-3.679-.909-4.848-5.983-9.827-11.537-11.322-10.756-2.897-29.522 3.149-58.85 18.958L203.79 625H67v280h1106V625H677.444l-3.107-2.25c-1.709-1.237-6.646-4.979-10.972-8.315-4.326-3.335-14.489-10.66-22.585-16.278-8.096-5.617-18.203-12.982-22.461-16.365-7.34-5.832-7.613-6.191-5.28-6.925C616.406 573.81 709.453 556 711.613 556c.951 0 2.487.686 3.413 1.524 1.539 1.392 1.555 1.917.186 6.073-3.432 10.425 3.396 22.409 12.761 22.399 9.68-.01 16.863-12.406 13.031-22.485-.847-2.227-.375-3.751 3.143-10.162 3.878-7.065 4.128-8.002 3.948-14.806-.15-5.67.241-8.007 1.783-10.653 4.736-8.127 3.532-17.48-3.011-23.391-4.542-4.104-9.474-4.646-14.48-1.593-4.056 2.473-7.387 9.422-7.387 15.41V523h-3.5c-4.228 0-4.267-.394-1-10 2.86-8.409 3.027-10.72.968-13.441-2.028-2.681-1.882-3.145 1.415-4.51 3.822-1.584 8.031-6.08 8.967-9.581.7-2.616 1.13-2.829 5.849-2.897 3.364-.049 5.751-.668 7.027-1.823 2.509-2.271 2.428-2.29 6.389 1.502l3.395 3.25-1.753 3.5c-1.009 2.013-1.755 5.748-1.755 8.79-.004 11.826 8.587 19.498 17.612 15.727 1.997-.834 3.742-1.517 3.878-1.517.136 0 .481 2.072.767 4.604.285 2.532 1.502 5.934 2.703 7.559 1.839 2.486 1.98 3.223.894 4.646-.709.93-1.398 1.859-1.531 2.065-.132.206-1.644-.806-3.359-2.25-6.147-5.171-15.339-2.605-19.502 5.445-1.885 3.646-1.885 13.216 0 16.862 2.622 5.07 7.167 8.069 12.23 8.069 3.964 0 5.049-.508 8.536-3.995l3.994-3.994 2.965 2.494c2.219 1.868 4.12 2.495 7.559 2.495 4.136 0 5.023-.447 8.881-4.473 4.434-4.628 6.127-4.645 4.378-.046-.554 1.457-1.007 3.986-1.007 5.619 0 2.627-.224 2.851-1.934 1.935-2.817-1.507-8.718-1.266-12.125.495-2.174 1.125-3.47 1.257-4.884.5-1.059-.566-3.798-1.03-6.087-1.03-5.29 0-9.619 2.997-11.995 8.304-1.499 3.348-2.338 4.06-5.133 4.357-7.009.745-12.028 6.764-12.635 15.154-.926 12.796 9.083 21.706 18.761 16.701 2.867-1.482 2.872-1.479 5 2.918 3.552 7.337 10.772 10.339 17.178 7.143 3.265-1.629 3.352-1.614 5.191.911 8.184 11.235 23.663 3.868 23.663-11.262 0-8.222-5.162-16.226-10.465-16.226-1.878 0-1.878.065-.035-4.346.825-1.974 1.5-5.227 1.5-7.229 0-3.092.263-3.523 1.75-2.87 3.166 1.391 8.99 1.654 11.139.504 2.016-1.079 2.111-.906 2.111 3.841 0 6.021 1.304 9.737 4.646 13.241 2.42 2.537 2.457 2.759.936 5.7-2.221 4.296-2.019 12.382.431 17.184 2.404 4.714 5.574 6.98 10.699 7.651 4.975.652 10.064-2.69 12.822-8.42l2.035-4.226 3.059 3.059c6.235 6.236 15.646 4.315 20.097-4.102 5.385-10.183.053-23.625-10.13-25.535l-3.447-.647 1.922-3.152c3.92-6.43 1.837-19.075-3.824-23.215-1.299-.95-1.144-1.635 1.155-5.11 1.575-2.38 2.903-6.096 3.262-9.132.587-4.954.674-5.073 2.694-3.658 3.222 2.256 10.85 1.873 14.134-.709 3.273-2.575 6.459-9.125 6.481-13.329.037-6.773-3.341-13.369-8.258-16.12-1.488-.833-1.546-1.631-.518-7.159.636-3.421 1.657-6.221 2.269-6.221.612 0 2.782-.851 4.824-1.892l3.711-1.892v4.576c0 6.989 3.2 12.642 8.648 15.28 3.971 1.922 5.007 2.048 8.414 1.028 2.31-.693 4.887-2.478 6.356-4.404 2.591-3.397 5.08-12.082 3.974-13.87-.433-.702.703-.817 3.459-.351 2.85.481 5.029.232 7.127-.814l3.022-1.508v3.68c0 11.729 8.538 20.125 17.467 17.178 4.079-1.346 8.403-6.112 9.211-10.151.663-3.313 1.915-3.716 2.808-.904.634 1.997 5.419 6.512 7.711 7.276.872.291.422 1.432-1.437 3.641-3.228 3.837-5.168 10.335-4.333 14.513l.604 3.018-2.969-2.844c-2.227-2.135-4.24-2.967-8.061-3.334-4.969-.477-5.196-.381-9.399 4.006-4.025 4.201-4.465 4.409-6.705 3.167-1.318-.73-3.882-1.344-5.697-1.364-8.075-.086-13.618 6.579-13.669 16.437-.026 5.119-.389 6.318-2.407 7.949-3.189 2.58-6.075 9.194-6.102 13.984-.021 3.814-.068 3.864-1.981 2.132-1.078-.975-3.44-2.095-5.25-2.489-2.142-.467-3.159-1.211-2.914-2.132.208-.779.395-4.003.417-7.166l.039-5.75h3.699c4.657 0 8.614-3.01 11.072-8.421 5.048-11.117-1.49-24.564-11.95-24.575-7.798-.009-13.645 7.441-13.536 17.246l.064 5.75h-3.764c-10.056 0-16.313 14.426-10.878 25.079 2.023 3.965 7.017 7.91 10.022 7.917 1.278.003 1.55 1.33 1.5 7.319-.054 6.314.304 7.868 2.616 11.369 2.608 3.95 2.639 4.169 1.172 8.425-3.52 10.217 3.484 22.874 12.666 22.887 12.045.018 18.699-19.184 9.902-28.577-1.831-1.954-1.857-2.341-.433-6.376.833-2.362 1.515-5.573 1.515-7.135v-2.841l3.509 2.071c3.511 2.071 8.607 2.229 12.792.397 1.536-.672 1.709-.421 1.175 1.704-.963 3.837 1.298 10.544 4.869 14.44 6.538 7.135 16.691 5.014 20.835-4.352 5.08-11.485-1.405-24.6-12.165-24.6-2.278 0-4.654.512-5.279 1.137-1.917 1.917-2.236 1.329-2.236-4.114 0-4.549.412-5.652 3.087-8.26 1.697-1.655 3.3-3.652 3.562-4.438.4-1.198.863-1.157 2.886.26 3.794 2.657 10.212 2.193 14.024-1.015 4.115-3.462 5.933-7.883 5.971-14.515.024-4.075.264-4.882 1.05-3.532 1.529 2.625 6.332 4.75 10.735 4.75 9.972 0 16.261-13.632 11.314-24.523l-1.828-4.022h3.807c6.689 0 12.768-6.177 13.634-13.854.419-3.718.784-4.41 1.858-3.518.735.61 3.056 1.629 5.157 2.263l3.821 1.154-.848 4.25c-.745 3.736-1.173 4.25-3.539 4.254-9.97.014-16.554 14.976-11.206 25.466 1.092 2.142 1.879 3.942 1.75 4.002-.129.06-1.538.54-3.131 1.068-4.321 1.432-8.739 7.479-9.337 12.78l-.503 4.469-4.211-4.395c-3.779-3.944-4.681-4.394-8.805-4.394-8.047 0-13.748 6.842-13.748 16.5 0 5.92 1.943 10.433 5.941 13.797 8.439 7.101 21.052-.394 21.062-12.515l.002-3.282 3.748 4.322c4.564 5.263 10.37 6.644 15.752 3.745 7.314-3.939 10.273-16.193 5.758-23.846l-2.166-3.67 4.33-1.916c2.486-1.099 5.096-3.211 6.128-4.958l1.797-3.044 1.752 5.175c2.477 7.315 6.532 10.692 12.841 10.692 4.176 0 5.433-.491 8.385-3.274 8.29-7.819 6.444-24.677-3.137-28.646-2.929-1.213-2.978-1.354-2.468-6.986.895-9.863-5.092-19.078-12.403-19.09-2.034-.004-2.141-.356-1.625-5.36.678-6.57-.885-11.679-4.762-15.555-2.886-2.887-2.896-2.937-1.316-6.719 4.323-10.347-2.428-23.77-11.955-23.77h-3.323l1.969-4.661c1.963-4.645 1.985-4.66 6.164-4.189 8.801.992 15.014-5.732 15.014-16.25 0-17.348-19.185-23.098-25.687-7.699l-1.984 4.699-4.694-.332-4.694-.332-.022-5.168c-.053-12.528-9.769-20.152-19.359-15.193-2.508 1.297-2.921 1.298-3.417.006-.903-2.354-6.843-5.473-10.431-5.477-7.543-.009-12.931 5.986-13.91 15.478-.43 4.168-.964 5.519-2.18 5.522-4.57.01-9.226 5.012-11.58 12.44-.552 1.741-.813 1.62-2.504-1.16-1.076-1.771-3.409-3.655-5.428-4.385-3.147-1.138-3.46-1.565-2.819-3.839.396-1.408.687-4.854.646-7.658-.239-16.383-19.138-21.347-25.606-6.726-2.023 4.573-2.164 11.174-.333 15.574.625 1.503.14 1.75-3.445 1.75-2.295 0-5.043.466-6.107 1.035-1.695.908-1.937.692-1.956-1.75-.036-4.529-3.57-11.066-7.17-13.261-6.412-3.909-13.812-1.972-17.961 4.702-1.863 2.996-2.336 5.128-2.293 10.34l.054 6.566-5.054-.372c-5.917-.435-10.208 1.734-12.521 6.327-.807 1.602-1.564 3.07-1.683 3.263-.119.192-1.886-1.319-3.927-3.36-3.582-3.582-3.911-3.695-9.566-3.286-5.725.414-5.857.366-5.879-2.14-.033-3.825-3.356-10.43-6.487-12.893-3.265-2.568-9.227-2.876-13.444-.695-9.834 5.085-10.061 23.644-.362 29.638 2.798 1.729 4.427 2.033 8.393 1.563 4.916-.582 4.922-.579 4.922 2.37 0 1.624.024 3.29.053 3.703.029.413-.759.915-1.75 1.117-3.334.678-7.167 4.153-8.89 8.057l-1.71 3.877-2.384-2.834c-3.273-3.889-8.301-5.458-12.769-3.983-4.389 1.448-9.262 6.963-10.1 11.429l-.648 3.456-3.386-3.387c-3.789-3.788-8.567-5.135-12.676-3.573-3.111 1.182-3.161 1.109-1.601-2.316 1.105-2.424 1.232-2.452 4.163-.937 6.025 3.116 13.685.079 17.293-6.856 2.093-4.022 1.783-13.138-.605-17.819-2.365-4.635-6.351-6.981-11.864-6.981-4.729 0-9.662 3.646-11.775 8.703-1.605 3.841-1.151 3.696-5.667 1.81-10.224-4.273-20.056 6.718-17.626 19.704.667 3.567.384 5.144-1.695 9.429-2.426 5.002-2.599 5.133-6.179 4.697-12.43-1.513-19.785 17.871-10.762 28.361l2.354 2.737-6.239 18.297c-3.431 10.063-6.418 18.432-6.638 18.598-.219.165-48.774 9.687-107.899 21.16-90.565 17.573-108.012 21.225-110.75 23.181a745.77 745.77 0 00-6.987 5.073c-2.304 1.695.334-1.763 6.877-9.015 34.644-38.399 77.82-105.402 87.933-136.459 4.354-13.371 5.121-27.022 2.076-36.929-1.977-6.431-7.055-15.563-8.601-15.465-.383.024-8.068 14.798-17.078 32.831-28.399 56.843-55.02 99.199-88.97 141.564C431.226 586.567 394.687 625 390.164 625c-1.19 0-2.164-.277-2.164-.615 0-.338 4.888-6.751 10.862-14.25 23.709-29.76 50.833-67.231 84.799-117.147 50.189-73.756 57.606-86.072 62.779-104.229 9.265-32.525 2.101-69.556-18.847-97.424-6.574-8.745-20.03-21.227-28.713-26.634-9.436-5.877-21.08-10.205-31.263-11.621-8.608-1.198-9.91-1.194-17.117.051m478.918 103.838c-5.56 2.249-10.195 12.078-8.914 18.906 1.585 8.447 6.491 13.125 13.766 13.125 5.471 0 9.221-2.669 11.834-8.421 6.103-13.438-4.555-28.518-16.686-23.61M828.5 378.954c-1.1.455-2.983 1.889-4.183 3.187-9.081 9.812-3.236 28.859 8.855 28.859 8.274 0 13.971-6.698 13.971-16.425 0-6.23-1.782-10.252-6.184-13.956-3.216-2.706-8.3-3.385-12.459-1.665m207.009 24.217c-3.557 2.798-6.465 9.244-6.465 14.329 0 15.765 17.228 22.473 25.104 9.774 2.936-4.734 3.186-14.053.512-19.068-3.669-6.88-13.514-9.469-19.151-5.035m-71.536 8.389c-1.36.753-3.261 1.385-4.223 1.405-1.383.028-1.755.926-1.772 4.285-.028 5.396-3.04 12.089-6.444 14.32l-2.634 1.726 3.179 1.539c2.709 1.312 6.143 5.385 7.215 8.558.166.492 1.405.267 2.754-.5 1.349-.766 4.183-1.848 6.299-2.403 3.255-.856 4.056-1.625 5.208-5 .749-2.195 2.664-5.162 4.257-6.595 2.156-1.94 3.029-3.791 3.419-7.25l.523-4.645h-3.426c-3.976 0-8.627-2.161-10.544-4.899-1.192-1.701-1.609-1.76-3.811-.541M903 416c.589 1.1 1.227 2 1.419 2 .191 0 .583-.9.871-2 .39-1.493.03-2-1.419-2-1.631 0-1.771.319-.871 2m-40.26 12.354c.36 4.48.074 7.124-.992 9.157-1.448 2.764-1.398 2.925 1.541 4.923 4.379 2.979 7.155 8.954 7.065 15.209-.09 6.201-2.532 10.879-7.408 14.19-3.924 2.663-9.204 2.539-13.568-.321-5.166-3.385-7.841-14.015-5.336-21.203.962-2.76.731-3.301-3.023-7.055l-4.065-4.065-1.382 2.655c-1.757 3.376-5.425 6.73-8.322 7.608-1.976.6-2.25 1.349-2.25 6.155 0 6.732-2.822 12.704-7.29 15.428-5.433 3.313-10.286 2.448-15.96-2.844-4.11-3.834-3.316-1.529 1.138 3.303 4.324 4.691 5.743 9.81 4.598 16.587-.787 4.663-5.495 10.632-9.097 11.536-2.89.726-2.877.442-.229 4.93 1.575 2.669 2.146 5.241 2.106 9.488-.053 5.602.027 5.788 2.089 4.847 1.852-.845 2.149-1.825 2.173-7.18.096-20.919 24.675-22.673 27.131-1.936.719 6.073-2.026 12.967-6.472 16.254-2.546 1.882-2.939 2.733-2.504 5.415.284 1.75.05 4.871-.519 6.935-.946 3.425-.766 4.136 2.067 8.156 2.532 3.592 3.12 5.433 3.187 9.984.075 5.072.264 5.531 2.082 5.048 1.1-.292 3.8-.537 6-.544 3.382-.012 4.441-.567 6.857-3.595l2.857-3.581-2.215-1.551c-1.219-.854-3.057-3.405-4.085-5.67-6.465-14.236 5.587-29.581 18.136-23.091 2.925 1.513 2.95 1.502 2.95-1.257 0-1.53.444-4.331.987-6.224.929-3.239.774-3.617-2.624-6.419C854.101 506.114 852 501.613 852 496c0-8.095 5.092-15.364 11.622-16.589 3.157-.592 3.378-.891 3.378-4.562 0-4.749 2.99-10.957 6.331-13.147l2.447-1.603-2.389-4.719c-3.828-7.562-3.005-15.97 2.095-21.38 2.016-2.14 2.276-3.193 1.8-7.305-.457-3.947-.844-4.677-2.17-4.088-2.962 1.315-8.869 1.595-10.886.515-1.915-1.025-1.973-.818-1.488 5.232m67.903.68c-.411 2.058-2.306 4.902-4.957 7.443l-4.292 4.111 1.801 3.956c1.079 2.369 1.702 5.761 1.553 8.456-.239 4.336-.102 4.573 3.747 6.5 5.184 2.595 8.466 8.324 8.489 14.817.015 4.569.132 4.776 2.266 4 1.237-.449 4.127-.806 6.422-.793 4.508.026 7.329 1.89 10.398 6.87l1.783 2.893 1.627-3.893c.894-2.142 2.807-5.127 4.25-6.634 1.443-1.506 2.432-2.88 2.197-3.052-.235-.172-1.655-1.081-3.156-2.02-1.501-.939-3.471-3.165-4.377-4.947-.907-1.783-1.765-3.378-1.908-3.545-.143-.167-1.774.619-3.623 1.746-9.357 5.705-19.863-2.084-19.863-14.726 0-5.974 1.943-10.683 5.719-13.86l2.547-2.143-2.383-1.207c-1.311-.664-3.551-2.579-4.978-4.255l-2.596-3.048-.666 3.331M903 430.465c0 .806-1.328 2.978-2.952 4.827-2.063 2.351-2.78 4.016-2.383 5.535.732 2.799.978 2.751 3.943-.774 1.364-1.62 3.341-3.219 4.394-3.554 1.825-.579 1.838-.767.271-4.053-1.705-3.575-3.273-4.524-3.273-1.981m131.5 10.908c-3.696 1.691-7.022 5.217-8.433 8.942-2.651 6.996.213 17.653 5.743 21.375 2.433 1.637 2.691 2.4 2.697 7.996.008 6.947 1.715 10.13 7.585 14.145 8.172 5.591 19.078-2.221 19.312-13.832.096-4.766.116-4.793 3.884-5.305 5.136-.697 8.299-2.964 10.699-7.669 2.656-5.205 2.603-12.175-.135-17.831-1.671-3.452-3.148-4.88-6.65-6.429-5.867-2.595-10.932-1.297-14.818 3.798l-2.668 3.499-1.81-2.977c-3.472-5.708-10.068-8.154-15.406-5.712m-141.62 17.595l-3.62 3.669 2.084 2.861c1.415 1.942 2.21 4.838 2.476 9.019l.392 6.159 3.644-1.903c2.629-1.373 4.828-1.751 7.894-1.357l4.25.546V473.5c0-3.871-.317-4.541-2.39-5.062-3.155-.792-7.126-5.033-9.07-9.688-.862-2.062-1.673-3.683-1.803-3.6-.131.082-1.866 1.8-3.857 3.818m98.679-1.436c-1.068.807-3.38 1.468-5.139 1.468-2.892 0-3.263.351-3.888 3.679-.415 2.216-2.05 5.039-4.111 7.1-3.748 3.748-3.998 4.221-2.235 4.221.652 0 2.236.987 3.52 2.194 2.083 1.956 2.691 2.064 5.635 1 4.334-1.568 6.552-1.498 10.023.312 3.655 1.906 3.372 2.027 4.119-1.756.353-1.788 1.116-4.481 1.695-5.986.924-2.4.68-3.161-1.974-6.185-1.665-1.896-3.323-4.377-3.683-5.513-.771-2.428-1.354-2.507-3.962-.534m-158.544 11.17c-10.807 5.575-10.646 24.939.254 30.567 9.391 4.85 18.731-2.847 18.731-15.436 0-12.174-9.712-19.915-18.985-15.131M773 471.886c0 1.207-.887 3.932-1.971 6.058l-1.972 3.864 2.459 1.61c3.248 2.129 6.484 8.629 6.484 13.026v3.524l3.388-1.616 3.389-1.616-2.119-3.591c-1.505-2.551-2.138-5.363-2.184-9.707-.06-5.662-.34-6.399-3.77-9.93-3.32-3.419-3.704-3.587-3.704-1.622m-61.035 62.275l-7.348 5.16 5.941 5.315 5.942 5.315 7 .012 7 .012 4.856-5.537c2.672-3.046 5.94-6.825 7.263-8.398l2.407-2.86-2.263.573c-1.245.314-2.488.892-2.763 1.283-.275.391-4.325-.779-9-2.599-4.675-1.82-9.217-3.338-10.093-3.373-.876-.035-4.9 2.258-8.942 5.097m134.242 52.284c-1.004 2.203-.823 2.848 1.428 5.099 1.417 1.418 2.642 2.437 2.721 2.267.079-.171 1.119-2.224 2.311-4.561l2.167-4.25h-2.335c-1.285 0-2.967-.242-3.739-.539-.851-.326-1.856.455-2.553 1.984M476 605.896c-62.194 17.562-60 16.897-60 18.171 0 .57 31.841.933 81.714.933 71.738 0 81.536-.179 80.25-1.464-2.042-2.042-45.35-33.514-45.964-33.402-.275.05-25.475 7.143-56 15.762m-306.281 159.1L148.937 806h17.652l4.411-9 4.411-9h46.178l4.411 9 4.411 9h9.795c5.387 0 9.794-.166 9.794-.368 0-.202-9.41-18.54-20.91-40.75L208.18 724.5l-8.84-.254-8.84-.254-20.781 41.004m106.479-39.323c-6.509 3.208-6.698 4.301-6.698 38.827 0 33.814.132 34.697 5.823 38.91 2.737 2.026 3.893 2.09 37.544 2.09 31.488 0 34.972-.164 37.413-1.764 5.78-3.787 6.191-5.448 6.546-26.439l.327-19.297H312v14h28v18h-53v-51h53v4.608c0 4.272.165 4.57 2.25 4.072 1.238-.295 5.119-1.088 8.625-1.763l6.375-1.226-.516-5.684c-.663-7.319-2.791-11.332-7.091-13.372-2.978-1.413-7.968-1.632-36.794-1.612-28.752.019-33.804.247-36.651 1.65m116.041 39.077l.261 40.75 8.75.289 8.75.289V775l7.75-.041 7.75-.04 15 15.587 15 15.588 12.438-.297 12.439-.297-16.698-15.25L446.98 775l7.26-.002c8.229-.001 12.887-1.82 16.189-6.321 1.893-2.581 2.071-4.214 2.071-19 0-26.824 2.028-25.677-45.412-25.677h-35.11l.261 40.75m121.762-39.627c-8.317 3.317-9.265 7.955-8.834 43.185.309 25.273.478 27.439 2.383 30.692 3.787 6.463 4.033 6.5 43.45 6.5 39.892 0 40.009-.019 43.5-7 1.867-3.733 2-6 2-34 0-43.605 3.468-40.523-45.5-40.435-20.429.037-35.519.468-36.999 1.058M679 765.039v41.039l8.75-.289 8.75-.289.275-15.75.276-15.75 25.724-.002c22.488-.001 26.165-.221 29.225-1.75 5.948-2.971 6.997-6.534 6.995-23.748-.002-13.283-.234-15.379-2.021-18.31-3.641-5.973-5.166-6.19-43.442-6.19H679v41.039m104.695-.047L762.889 806h17.7l4.411-9 4.411-9h46.178l4.411 9 4.411 9h9.795c5.387 0 9.794-.115 9.794-.256 0-.141-9.417-18.479-20.927-40.75L822.147 724.5l-8.824-.258-8.823-.258-20.805 41.008m103.305.047v41.039l8.75-.289 8.75-.289.276-15.25.276-15.25H920.053l15.224 15.558 15.223 15.557 12.335-.307 12.335-.308-16.692-15-16.693-15 8.425-.515c15.089-.923 16.792-3.582 16.786-26.203-.003-13.564-.23-15.654-2.022-18.592-3.641-5.973-5.166-6.19-43.442-6.19H887v41.039m114-.039v41h18v-17.5c0-9.625.243-17.5.541-17.5.297 0 10.173 7.875 21.945 17.5l21.404 17.5h13.555c7.455 0 13.531-.337 13.502-.75-.03-.413-11.803-9.975-26.163-21.25-14.361-11.275-26.128-20.95-26.151-21.5-.022-.55 9.955-8.902 22.173-18.559 12.217-9.658 22.749-18.096 23.403-18.75.921-.921-1.673-1.191-11.447-1.191h-12.638l-19.812 16.621-19.812 16.622-.274-16.622-.274-16.621H1001v41m-591-15.5v11.699l21.451-.35c15.881-.258 21.788-.687 22.75-1.649 1.786-1.787 1.786-17.613 0-19.4-.962-.962-6.869-1.391-22.75-1.649l-21.451-.35V749.5m287-1.087V759h21.3c15.233 0 21.642-.342 22.5-1.2 1.942-1.942 1.582-16.238-.452-17.928-1.252-1.04-6.696-1.454-22.5-1.709L697 737.825v10.588m208 1.087v11.675l20.848-.338c15.804-.255 21.248-.669 22.5-1.709 2.391-1.987 2.391-17.269 0-19.256-1.252-1.04-6.696-1.454-22.5-1.709L905 737.825V749.5m-382 15V790h56v-51h-56v25.5m-332.259-7.75l-7.573 15.75 15.056.277c8.281.152 15.22.112 15.422-.089.374-.375-14.476-31.688-15.028-31.688-.168 0-3.712 7.087-7.877 15.75m613.919-.09c-4.271 8.562-7.58 15.754-7.353 15.981.227.227 7.209.288 15.515.136l15.102-.277-7.31-15.265c-4.021-8.395-7.508-15.462-7.75-15.704-.242-.242-3.934 6.566-8.204 15.129M620 763.5v8.5h34v-17h-34v8.5" fill="undefined" fill-rule="evenodd"/></svg>